<svg width="25" height="24" viewBox="0 0 25 24" fill="none" xmlns="http://www.w3.org/2000/svg">
<path d="M11.5813 1.13741C11.9281 0.330608 13.0719 0.330608 13.4187 1.13741L15.9992 7.14095C16.1415 7.47201 16.4509 7.70091 16.8092 7.74011L23.1735 8.43671C24.0235 8.52975 24.3722 9.57752 23.7475 10.1614L18.9436 14.651C18.6894 14.8885 18.577 15.2411 18.6467 15.582L19.9803 22.1026C20.1545 22.9545 19.2335 23.6075 18.4873 23.1612L13.0133 19.887C12.6972 19.698 12.3028 19.698 11.9867 19.887L6.51273 23.1612C5.76648 23.6075 4.84545 22.9545 5.01969 22.1026L6.35334 15.582C6.42305 15.2411 6.3106 14.8885 6.05642 14.651L1.2525 10.1614C0.627774 9.57753 0.97649 8.52975 1.8265 8.43671L8.19085 7.74011C8.54906 7.70091 8.85847 7.47201 9.00077 7.14095L11.5813 1.13741Z" fill="#FFBB0C"/>
</svg>
